<svg width="29" height="28" viewBox="0 0 29 28" fill="none" xmlns="http://www.w3.org/2000/svg">
<path d="M0 13.44C0 7.10432 0 3.93648 1.9731 1.96824C3.9462 0 7.12186 0 13.4732 0H14.5959C20.9473 0 24.1229 0 26.096 1.96824C28.0691 3.93648 28.0691 7.10432 28.0691 13.44V14.56C28.0691 20.8957 28.0691 24.0635 26.096 26.0318C24.1229 28 20.9473 28 14.5959 28H13.4732C7.12186 28 3.9462 28 1.9731 26.0318C0 24.0635 0 20.8957 0 14.56V13.44Z" fill="#0077FF"/>
<path d="M14.9352 20.1716C8.53781 20.1716 4.88886 15.7966 4.73682 8.5166H7.94136C8.04662 13.8599 10.4091 16.1232 12.2803 16.5899V8.5166H15.2979V13.1249C17.1457 12.9266 19.087 10.8266 19.7419 8.5166H22.7594C22.2565 11.3633 20.1513 13.4632 18.6543 14.3266C20.1513 15.0266 22.549 16.8583 23.4613 20.1716H20.1397C19.4262 17.9549 17.6486 16.2399 15.2979 16.0066V20.1716H14.9352Z" fill="white"/>
</svg>
